<svg xmlns="http://www.w3.org/2000/svg" width="64" height="64" viewBox="0 0 64 64">
  <defs>
    <linearGradient id="g" x1="0" y1="0" x2="1" y2="1">
      <stop offset="0" stop-color="#2EA8D6"/>
      <stop offset="1" stop-color="#22C2C5"/>
    </linearGradient>
  </defs>
  <rect x="4" y="4" width="56" height="56" rx="14" fill="url(#g)"/>
  <path d="M32 18c1.104 0 2 .896 2 2v24c0 1.104-.896 2-2 2s-2-.896-2-2V20c0-1.104.896-2 2-2Z" fill="#FFFFFF"/>
  <path d="M18 32c0-1.104.896-2 2-2h24c1.104 0 2 .896 2 2s-.896 2-2 2H20c-1.104 0-2-.896-2-2Z" fill="#FFFFFF"/>
</svg>
